<svg xmlns="http://www.w3.org/2000/svg" viewBox="0 0 20.91 20.18"><defs><style>.cls-1{fill:#4d4d4d;}</style></defs><title>deco-check</title><g id="圖層_2" data-name="圖層 2"><g id="圖層_1-2" data-name="圖層 1"><path class="cls-1" d="M0,7.69c.74.64,1.43,1.32,2.09,2S3.4,11.08,4,11.8c1.24,1.43,2.41,2.91,3.52,4.42L4.65,16a89.3,89.3,0,0,1,7.43-8.6q2-2,4.18-3.9A41.85,41.85,0,0,1,20.91,0,43,43,0,0,1,18.1,5.09c-1,1.62-2.12,3.18-3.26,4.7a88.18,88.18,0,0,1-7.46,8.58L5.59,20.18l-1.1-2Q3.14,15.68,2,13.08c-.38-.86-.73-1.75-1.08-2.64S.26,8.64,0,7.69Z"/></g></g></svg>