<svg xmlns="http://www.w3.org/2000/svg" viewBox="0 0 50 50"><defs><style>.cls-1{fill:#343262;}</style></defs><title>deco-check-border</title><g id="圖層_2" data-name="圖層 2"><g id="圖層_1-2" data-name="圖層 1"><path class="cls-1" d="M12,23.88a82.41,82.41,0,0,1,9,10.83l-2.89-.22A125.37,125.37,0,0,1,32.44,18.87,64.34,64.34,0,0,1,38,14.33C33.46,22.68,27.35,30,20.85,36.86L19.1,38.68A92.61,92.61,0,0,1,12,23.88Z"/><path class="cls-1" d="M25,2A23,23,0,1,1,2,25,23,23,0,0,1,25,2m0-2A25,25,0,1,0,50,25,25,25,0,0,0,25,0Z"/></g></g></svg>