<svg xmlns="http://www.w3.org/2000/svg" viewBox="0 0 180 180"><defs><style>.cls-1{fill:#e4e4ea;}.cls-2{fill:#fff;}.cls-3{fill:#343262;}</style></defs><title>img-flow-4</title><g id="圖層_2" data-name="圖層 2"><g id="圖層_1-2" data-name="圖層 1"><circle class="cls-1" cx="90" cy="90" r="90"/><path class="cls-2" d="M45,112.4A3.52,3.52,0,0,0,47.24,114l90.26,21.29a3.38,3.38,0,0,0,.83.11,3.65,3.65,0,0,0,3.52-2.79l14.69-62.31A3.62,3.62,0,0,0,153.87,66L63.6,44.68a3.6,3.6,0,0,0-4.34,2.67L44.54,109.67A3.67,3.67,0,0,0,45,112.4Z"/><path class="cls-3" d="M45,112.4A3.52,3.52,0,0,0,47.24,114l90.26,21.29a3.38,3.38,0,0,0,.83.11,3.65,3.65,0,0,0,3.52-2.79l14.69-62.31A3.62,3.62,0,0,0,153.87,66L63.6,44.68a3.6,3.6,0,0,0-4.34,2.67L44.54,109.67A3.67,3.67,0,0,0,45,112.4Zm19.4-55.34,9.87,14.68-15.46,9Zm78.84,13.81L99.17,95.82l-28.26-42Zm-11,14.55,15.41-8.72L142,100.36Zm-79.8,22.4,4.1-17.4L78.3,77.76l16.75,24.87a3.58,3.58,0,0,0,3,1.6,3.66,3.66,0,0,0,1.77-.47L125.92,89l13.83,21.06-4.12,17.41Z"/><path class="cls-3" d="M27,47h22.7a3.62,3.62,0,0,1,0,7.23H27A3.62,3.62,0,0,1,27,47Z"/><path class="cls-3" d="M30.79,65.4H45.85a3.61,3.61,0,1,1,0,7.22H30.79a3.61,3.61,0,1,1,0-7.22Z"/><path class="cls-3" d="M34.4,83.8h7.84a3.61,3.61,0,0,1,0,7.22H34.4a3.61,3.61,0,0,1,0-7.22Z"/></g></g></svg>