<svg xmlns="http://www.w3.org/2000/svg" viewBox="0 0 180 180"><defs><style>.cls-1{fill:#e4e4ea;}.cls-2{fill:#fff;}.cls-3{fill:#f3d54d;}.cls-4{fill:#343262;}</style></defs><title>img-flow-2</title><g id="圖層_2" data-name="圖層 2"><g id="圖層_1-2" data-name="圖層 1"><circle class="cls-1" cx="90" cy="90" r="90"/><path class="cls-2" d="M148.76,103.23a26.85,26.85,0,0,1-26.83,26.82H58.07a26.82,26.82,0,1,1,0-53.63c.31,0,.63,0,1,0a31.14,31.14,0,0,1,62,0h1A26.85,26.85,0,0,1,148.76,103.23Z"/><path class="cls-3" d="M74.46,112.64h2.61a3.12,3.12,0,0,1,3.12,3.12v9.61H99.81v-9.61a3.12,3.12,0,0,1,3.12-3.12h2.6L90,101.26Z"/><path class="cls-4" d="M148.76,103.23a26.85,26.85,0,0,1-26.83,26.82,3.12,3.12,0,0,1,0-6.24,20.58,20.58,0,1,0-3.41-40.88,3.11,3.11,0,0,1-3.62-3.11v-.29a24.9,24.9,0,1,0-49.8,0v.29A3.15,3.15,0,0,1,64,82.23a3.09,3.09,0,0,1-2.53.7,20.58,20.58,0,1,0-3.41,40.88,3.12,3.12,0,0,1,0,6.24,26.82,26.82,0,1,1,0-53.63c.31,0,.63,0,1,0a31.14,31.14,0,0,1,62,0h1A26.85,26.85,0,0,1,148.76,103.23Z"/><path class="cls-4" d="M75.11,78.42A13.42,13.42,0,0,1,88.52,65a3.12,3.12,0,0,0,0-6.23A19.66,19.66,0,0,0,68.88,78.42a3.12,3.12,0,1,0,6.23,0Z"/><path class="cls-4" d="M116.8,113.17l-25-18.28a3.09,3.09,0,0,0-3.68,0L63.1,113.25a3.11,3.11,0,0,0,1.84,5.63h9v9.61a3,3,0,0,0,.44,1.56,3.07,3.07,0,0,0,2.67,1.55h25.86a3.1,3.1,0,0,0,2.69-1.55,3,3,0,0,0,.44-1.56v-9.61h9a3.12,3.12,0,0,0,1.73-5.71ZM90,101.26l15.55,11.38h-2.62a3.13,3.13,0,0,0-3.11,3.11v9.62H80.19v-9.62a3.13,3.13,0,0,0-3.13-3.11h-2.6Z"/></g></g></svg>