<svg xmlns="http://www.w3.org/2000/svg" viewBox="0 0 180 180"><defs><style>.cls-1{fill:#e4e4ea;}.cls-2{fill:#fff;}.cls-3{fill:none;}.cls-4{fill:#f3d54d;}.cls-5{fill:#343262;}</style></defs><title>img-flow-1</title><g id="圖層_2" data-name="圖層 2"><g id="圖層_1-2" data-name="圖層 1"><circle class="cls-1" cx="90" cy="90" r="90"/><rect class="cls-2" x="42.04" y="58.06" width="99.66" height="82.54"/><path class="cls-3" d="M63.37,138H133.9a4.07,4.07,0,0,0,4.06-4.07V66.45H63.37ZM74,76.88h50.21a3.12,3.12,0,1,1,0,6.23H74a3.12,3.12,0,1,1,0-6.23Zm0,15h50.21a3.12,3.12,0,1,1,0,6.24H74a3.12,3.12,0,0,1,0-6.24Zm0,15h50.21a3.12,3.12,0,1,1,0,6.23H74a3.12,3.12,0,1,1,0-6.23Zm0,15h28a3.12,3.12,0,1,1,0,6.23H74a3.12,3.12,0,1,1,0-6.23Z"/><path class="cls-3" d="M42,133.89A4.07,4.07,0,0,0,46.1,138h11V66.45H42Z"/><path class="cls-4" d="M138,46.11A4.07,4.07,0,0,0,133.9,42H46.1A4.07,4.07,0,0,0,42,46.11V60.22H138Z"/><path class="cls-5" d="M133.9,35.8H46.1A10.31,10.31,0,0,0,35.8,46.11v87.78A10.31,10.31,0,0,0,46.1,144.2h87.8a10.31,10.31,0,0,0,10.3-10.31V46.11A10.31,10.31,0,0,0,133.9,35.8ZM42,46.11A4.07,4.07,0,0,1,46.1,42h87.8A4.07,4.07,0,0,1,138,46.11V60.22H42ZM57.13,138h-11A4.07,4.07,0,0,1,42,133.89V66.45H57.13ZM138,133.89A4.07,4.07,0,0,1,133.9,138H63.37V66.45H138Z"/><path class="cls-5" d="M74,83.11h50.21a3.12,3.12,0,1,0,0-6.23H74a3.12,3.12,0,1,0,0,6.23Z"/><path class="cls-5" d="M74,98.08h50.21a3.12,3.12,0,1,0,0-6.24H74a3.12,3.12,0,0,0,0,6.24Z"/><path class="cls-5" d="M74,113h50.21a3.12,3.12,0,1,0,0-6.23H74A3.12,3.12,0,1,0,74,113Z"/><path class="cls-5" d="M74,128h28a3.12,3.12,0,1,0,0-6.23H74A3.12,3.12,0,1,0,74,128Z"/></g></g></svg>