<svg xmlns="http://www.w3.org/2000/svg" viewBox="0 0 180 180"><defs><style>.cls-1{fill:#e4e4ea;}.cls-2{fill:#fff;}.cls-3{fill:none;}.cls-4{fill:#f3d54d;}.cls-5{fill:#343262;}</style></defs><title>img-flow-5</title><g id="圖層_2" data-name="圖層 2"><g id="圖層_1-2" data-name="圖層 1"><circle class="cls-1" cx="90" cy="90" r="90"/><rect class="cls-2" x="44.42" y="42.18" width="91.15" height="64.85" rx="3.11"/><path class="cls-3" d="M92.12,86.88a3.12,3.12,0,0,1-4.24,0L67.6,68.11,50.76,84.05l-.11.09V100.8h78.7V84.15l-16.95-16Z"/><polygon class="cls-3" points="124.51 48.4 55.49 48.4 90 80.34 124.51 48.4"/><polygon class="cls-3" points="50.65 52.42 50.65 75.56 63.02 63.86 50.65 52.42"/><polygon class="cls-3" points="129.34 75.56 129.34 52.42 116.98 63.86 129.34 75.56"/><path class="cls-4" d="M102.53,127.59V119H77.47v8.56a3.12,3.12,0,0,1-3.12,3.12h-6L90,145.35l21.67-14.64h-6A3.12,3.12,0,0,1,102.53,127.59Z"/><path class="cls-5" d="M132.46,42.18H47.54a3.11,3.11,0,0,0-3.12,3.11v58.63A3.11,3.11,0,0,0,47.54,107h84.92a3.11,3.11,0,0,0,3.12-3.11V45.29A3.11,3.11,0,0,0,132.46,42.18Zm-8,6.22L90,80.35,55.49,48.4Zm-73.86,4L63,63.86,50.65,75.56Zm78.7,48.39H50.65V84.14l.11-.1L67.61,68.1,87.89,86.87a3,3,0,0,0,4.22,0L112.39,68.1l17,16Zm0-25.24L117,63.86l12.37-11.45Z"/><path class="cls-5" d="M121.86,124.48H108.77v-8.56a3.12,3.12,0,0,0-3.12-3.12H74.35a3.12,3.12,0,0,0-3.12,3.12v8.56H58.14a3.11,3.11,0,0,0-1.74,5.7l31.85,21.51a3.11,3.11,0,0,0,1.75.54,3.06,3.06,0,0,0,1.74-.54l31.86-21.51a3.11,3.11,0,0,0-1.74-5.7ZM90,145.35,68.33,130.71h6a3.12,3.12,0,0,0,3.12-3.12V119h25.06v8.56a3.12,3.12,0,0,0,3.12,3.12h6Z"/></g></g></svg>