<svg xmlns="http://www.w3.org/2000/svg" xmlns:xlink="http://www.w3.org/1999/xlink" width="789.245" height="68.6" viewBox="0 0 789.245 68.6">
  <defs>
    <linearGradient id="linear-gradient" x1="-0.547" y1="0.499" x2="2.348" y2="0.499" gradientUnits="objectBoundingBox">
      <stop offset="0" stop-color="#0c763f"/>
      <stop offset="0.115" stop-color="#167d3e"/>
      <stop offset="0.706" stop-color="#469d37"/>
      <stop offset="1" stop-color="#59aa35"/>
    </linearGradient>
    <linearGradient id="linear-gradient-2" x1="0.007" y1="0.5" x2="1.01" y2="0.5" gradientUnits="objectBoundingBox">
      <stop offset="0" stop-color="#00723c"/>
      <stop offset="0.188" stop-color="#12803a"/>
      <stop offset="0.73" stop-color="#42a434"/>
      <stop offset="1" stop-color="#55b232"/>
    </linearGradient>
    <linearGradient id="linear-gradient-3" x1="-0.596" y1="0.499" x2="2.563" y2="0.499" xlink:href="#linear-gradient"/>
    <linearGradient id="linear-gradient-4" x1="0.01" y1="0.5" x2="1.011" y2="0.5" gradientUnits="objectBoundingBox">
      <stop offset="0" stop-color="#1f2a66"/>
      <stop offset="0.144" stop-color="#1a3573"/>
      <stop offset="0.716" stop-color="#0a5ea4"/>
      <stop offset="1" stop-color="#036eb7"/>
    </linearGradient>
    <linearGradient id="linear-gradient-5" x1="0.009" y1="0.5" x2="1.01" y2="0.5" gradientUnits="objectBoundingBox">
      <stop offset="0" stop-color="#6e172c"/>
      <stop offset="0.285" stop-color="#90122f"/>
      <stop offset="0.765" stop-color="#c30b33"/>
      <stop offset="1" stop-color="#d70835"/>
    </linearGradient>
  </defs>
  <g id="组_4" data-name="组 4" transform="translate(-1767 -1966)">
    <g id="Page-1" transform="translate(1736 1943)">
      <g id="card_icon">
        <g id="Group" transform="translate(407.124 28.7)">
          <path id="Path" d="M17.876,0h22.8a4.41,4.41,0,0,1,4.4,5.8l-10.6,45.5a7.662,7.662,0,0,1-7.1,5.8H4.576a4.41,4.41,0,0,1-4.4-5.8l10.6-45.5a7.662,7.662,0,0,1,7.1-5.8Z" fill="#d70c18"/>
          <path id="Path-2" data-name="Path" d="M38.676,0h22.8a4.41,4.41,0,0,1,4.4,5.8l-10.6,45.5a7.662,7.662,0,0,1-7.1,5.8h-22.8c-3.2,0-5.1-2.6-4.4-5.8l10.6-45.5a7.759,7.759,0,0,1,7.1-5.8Z" fill="#00469b"/>
          <path id="Path-3" data-name="Path" d="M63.876,0h22.8a4.41,4.41,0,0,1,4.4,5.8l-10.6,45.5a7.662,7.662,0,0,1-7.1,5.8h-22.8a4.41,4.41,0,0,1-4.4-5.8l10.6-45.5a7.662,7.662,0,0,1,7.1-5.8Z" fill="#2e7e7f"/>
          <path id="Shape" d="M60.376,42.8h2.1l.5-2.1h-2.1Zm1.3-5.7-.6,2.4a8.66,8.66,0,0,1,1.2-.5c.4-.1,1.1-.2,1.1-.2l.4-1.7Zm.8-3.5-.5,2.3a8.66,8.66,0,0,1,1.2-.5c.4-.1,1.1-.2,1.1-.2l.4-1.7h-2.2Zm4.8,0-2.1,9.2h.7l-.4,1.9h-.8l-.1.6h-2.6l.1-.6h-5.4l.4-1.8h.5l2.2-9.3.4-1.9h2.7l-.2,1a5.4,5.4,0,0,1,1.4-.7,41.192,41.192,0,0,1,4.6-.2l-.5,1.9h-.9Z" fill="#fff" fill-rule="evenodd"/>
          <path id="Path-4" data-name="Path" d="M68.776,31.8h2.9v1.1c0,.2.1.3.5.3h.5l-.4,1.8h-1.5c-1.4.1-1.9-.5-1.8-1.1Z" fill="#fff" fill-rule="evenodd"/>
          <path id="Path-5" data-name="Path" d="M69.276,40.2h-2.7l.4-1.6h3.1l.4-1.4h-3.1l.4-1.8h8.6l-.4,1.8h-2.9l-.3,1.4h2.9l-.4,1.6h-3.1l-.5.7h1.3l.5,2c0,.2.1.3.1.4.1.1.5.1.7.1h.4l-.5,1.9h-1.7a1.493,1.493,0,0,1-.7-.3,1.079,1.079,0,0,1-.6-.7l-.4-2-1.3,2a2.273,2.273,0,0,1-2,1.1h-2l.4-1.7h.8a1.421,1.421,0,0,0,.6-.2c.1-.1.3-.1.4-.3Z" fill="#fff" fill-rule="evenodd"/>
          <path id="Path-6" data-name="Path" d="M38.976,35.8h7.3l-.4,1.7h-2.9l-.4,1.5h3l-.4,1.8h-3l-.6,2.4c-.1.3.7.3,1,.3l1.5-.2-.5,2h-3.4a2.2,2.2,0,0,1-.8-.1,1.275,1.275,0,0,1-.6-.4.863.863,0,0,1-.2-.8l.8-3.2h-1.6l.4-1.8h1.7l.4-1.5h-1.6Z" fill="#fff" fill-rule="evenodd"/>
          <path id="Path-7" data-name="Path" d="M43.676,32.7h3l-.4,1.8h-4.1l-.4.4c-.2.2-.2.1-.5.2a2.826,2.826,0,0,1-1.3.4h-1.3l.4-1.7h.4c.3,0,.6,0,.7-.1a1.538,1.538,0,0,0,.4-.6l.7-1.4h3Z" fill="#fff" fill-rule="evenodd"/>
          <path id="Shape-2" data-name="Shape" d="M49.576,35.7a5.233,5.233,0,0,1,2.1-1,17.483,17.483,0,0,1,2.3,0l.2-1h-4.2Zm4,.8h-4.2l-.2.8h4.1Zm-5.7-4.7h2.5l-.3,1.3s.8-.6,1.3-.9a12.468,12.468,0,0,1,1.8-.4h4.1l-1.1,4.7a3.691,3.691,0,0,1-.6,1.5,1.441,1.441,0,0,1-.7.6,1.613,1.613,0,0,1-.9.3h-5.3l-.9,3.7a2.142,2.142,0,0,0-.1.6.52.52,0,0,0,.4.2l1.7-.2-.5,2h-3.4a1.077,1.077,0,0,1-.8-.2c-.2-.2-.5-.4-.5-.6a8.375,8.375,0,0,1,.2-1Z" fill="#fff" fill-rule="evenodd"/>
          <path id="Path-8" data-name="Path" d="M55.676,39.3l-.2,1.1a2.01,2.01,0,0,1-.4.8,1.972,1.972,0,0,1-1.3.5l-1.4.1.1,1.3c0,.4.1.3.2.4s.1.1.2.1h.4l1.3-.1-.4,1.9h-1.5a5.629,5.629,0,0,1-2.2-.2c-.3-.2-.3-.4-.3-.7l-.2-4.9h2.5v1h.6c.2,0,.3,0,.4-.1s.1-.1.1-.3l.2-.8h1.9Z" fill="#fff" fill-rule="evenodd"/>
          <path id="Path-9" data-name="Path" d="M20.476,14.6c-.1.4-1.7,7.7-1.7,7.7a5.3,5.3,0,0,1-1.4,3.2,2.523,2.523,0,0,1-1.7.6,1.669,1.669,0,0,1-1.8-1.5v-.3l.3-2s1.7-6.6,2-7.5v-.1h-3.8a4.331,4.331,0,0,1-.1.5l-1.7,7.5-.1.6-.3,2.1a2.41,2.41,0,0,0,.4,1.5c.8,1.4,3,1.6,4.2,1.6a8.275,8.275,0,0,0,4.1-1c1.8-1,2.2-2.7,2.6-4.1l.2-.7s1.7-6.9,2-7.8v-.1C21.476,14.6,20.776,14.6,20.476,14.6Z" fill="#fff"/>
          <path id="Path-10" data-name="Path" d="M29.976,28.3h-2.9l-.1-.1a8.331,8.331,0,0,1,.4-1.5l.2-.7a14.419,14.419,0,0,0,.5-2.7c0-.2.1-.8-.6-.8a1.613,1.613,0,0,0-.9.3,24.747,24.747,0,0,0-.6,2.9c-.3,1.6-.4,1.7-.5,2.5l-.1.1h-2.9l-.1-.1c.2-.9.5-1.9.7-2.8.6-2.5.7-3.5.9-4.7l.1-.1c1.3-.2,1.6-.2,3.1-.5l.1.1-.2.8c.2-.1.5-.3.7-.4a4.915,4.915,0,0,1,1.8-.4,1.624,1.624,0,0,1,1.6.9c.3.6.1,1.4-.3,3l-.2.8c-.4,1.8-.4,2.1-.6,3.3Z" fill="#fff"/>
          <path id="Path-11" data-name="Path" d="M34.676,28.3h-1.6a9.233,9.233,0,0,0-1.5.1v-.1h0a5.337,5.337,0,0,1,.4-1.1,3.874,3.874,0,0,0,.3-1.1c.2-.9.3-1.5.4-2s.1-1,.2-1.5h.2a11.548,11.548,0,0,1,1.6-.2c.4-.1.9-.1,1.6-.3v.2c-.1.5-.3,1.1-.4,1.6s-.3,1.1-.4,1.6a10.105,10.105,0,0,0-.4,1.9,8.663,8.663,0,0,0-.2,1l-.2-.1Z" fill="#fff"/>
          <path id="Shape-3" data-name="Shape" d="M41.876,24.2a6.4,6.4,0,0,1-.7,1.9,1.05,1.05,0,0,1-.9.5c-.1,0-.7,0-.7-.8a6.882,6.882,0,0,1,.2-1.3c.3-1.3.7-2.4,1.6-2.4C42.176,22,42.176,22.8,41.876,24.2Zm3,.1c.4-1.8.1-2.6-.3-3.1a3.158,3.158,0,0,0-2.7-1,5,5,0,0,0-3.4,1.2,5.075,5.075,0,0,0-1.5,3c-.2,1.1-.5,3,1.2,3.7a6.279,6.279,0,0,0,1.9.3,5.369,5.369,0,0,0,3.7-1.4A6.381,6.381,0,0,0,44.876,24.3Z" fill="#fff"/>
          <path id="Shape-4" data-name="Shape" d="M74.676,20.3c-1.4.3-1.8.3-3.2.5l-.1.1v.3a1.375,1.375,0,0,0-1-.8,4.156,4.156,0,0,0-3.3,1.2,5.108,5.108,0,0,0-1.5,2.9c-.2,1.1-.5,3,1.2,3.7a4.973,4.973,0,0,0,1.6.3,2.574,2.574,0,0,0,1.5-.7c0,.2-.1.3-.1.5l.1.1a16.045,16.045,0,0,1,3.1,0l.1-.1c.2-1.2.4-2.3.9-4.6.3-1.1.5-2.2.8-3.2Zm-4.5,5.9a1.606,1.606,0,0,1-1.1.5c-.1,0-.7,0-.7-.8a6.882,6.882,0,0,1,.2-1.3c.3-1.3.7-2.4,1.6-2.4.6,0,.9.6.8,1.5,0,.2-.1.4-.1.7l-.3,1.2A6.124,6.124,0,0,0,70.176,26.2Z" fill="#fff"/>
          <path id="Path-12" data-name="Path" d="M52.776,28.3h-2.9l-.1-.1a8.331,8.331,0,0,1,.4-1.5l.1-.7a14.419,14.419,0,0,0,.5-2.7c0-.2.1-.8-.6-.8a1.613,1.613,0,0,0-.9.3,24.748,24.748,0,0,0-.6,2.9c-.3,1.6-.4,1.7-.5,2.5l-.1.1h-2.9l-.1-.1a28.639,28.639,0,0,1,.7-2.8c.6-2.5.7-3.5.9-4.7l.1-.1c1.3-.2,1.6-.2,3.1-.5l.1.1-.2.8c.2-.1.5-.3.7-.4a4.915,4.915,0,0,1,1.8-.4,1.624,1.624,0,0,1,1.6.9c.3.6.1,1.4-.3,3l-.2.8c-.4,1.8-.4,2.1-.6,3.3Z" fill="#fff"/>
          <path id="Shape-5" data-name="Shape" d="M62.676,14.5h-4.9a2.034,2.034,0,0,1-.1.5l-.9,4.1s-2.1,8.7-2.2,9.2h3.4c.1-.4.6-2.8.6-2.9a12.091,12.091,0,0,1,.5-1.8.747.747,0,0,1,.3-.3h.2c1.9,0,4,0,5.6-1.2a5.9,5.9,0,0,0,2.2-3.5,5.067,5.067,0,0,0,.2-1.3,2.934,2.934,0,0,0-.4-1.6C66.276,14.6,64.576,14.6,62.676,14.5Zm1.2,4.3a3.124,3.124,0,0,1-1.6,2.1,5.115,5.115,0,0,1-2.2.3h-.5V21l.9-4.1v-.4h.4s1.9.2,2,.2A1.675,1.675,0,0,1,63.876,18.8Z" fill="#fff"/>
          <path id="Path-13" data-name="Path" d="M35.876,21.2c.8-.5.8-1.3.2-1.6a2.331,2.331,0,0,0-2.5.3c-.8.5-.9,1.3-.2,1.6A2.346,2.346,0,0,0,35.876,21.2Z" fill="#fff"/>
          <path id="Path-14" data-name="Path" d="M84.176,20.3l-.1-.1c-1.4.3-1.7.3-3,.5l-.1.1v.1h0c-1,2.2-.9,1.8-1.7,3.5v-.2l-.2-3.8-.1-.1c-1.5.3-1.5.3-2.9.5l-.1.1v.2h0a20.575,20.575,0,0,1,.3,2.1c.1.7.2,1.4.3,2,.1,1.1.2,1.7.4,3.4-.9,1.5-1.1,2.1-2,3.4h0l-.6,1c-.1.1-.1.2-.2.2s-.2.1-.4.1h-.6l-.4,1.8h1.8a2.059,2.059,0,0,0,2-1.2l1.1-1.9Z" fill="#fff" fill-rule="evenodd"/>
        </g>
        <g id="Group-2" data-name="Group" transform="translate(175.5 23)">
          <g id="Path-15" data-name="Path">
            <path id="路径_1" data-name="路径 1" d="M68.6,34.3A34.3,34.3,0,1,1,34.3,0,34.356,34.356,0,0,1,68.6,34.3Z" fill="#d60d18"/>
            <path id="路径_2" data-name="路径 2" d="M80.4,0a34.16,34.16,0,0,0-23,8.9A28.962,28.962,0,0,0,54,12.5h6.9c.9,1.1,1.8,2.4,2.6,3.6H51.3c-.7,1.2-1.4,2.4-2,3.6H65.4c.6,1.2,1,2.4,1.5,3.6h-19c-.4,1.2-.7,2.4-1,3.6h21a34.74,34.74,0,0,1,.8,7.3,32.8,32.8,0,0,1-1.8,10.9h-19a22.769,22.769,0,0,0,1.5,3.6H65.5a25.348,25.348,0,0,1-2,3.6H51.3a33.2,33.2,0,0,0,2.6,3.6h6.9a29.766,29.766,0,0,1-3.5,3.6A34.225,34.225,0,1,0,80.4,0Z" fill="#f6aa00"/>
          </g>
          <g id="组_3" data-name="组 3" transform="translate(2.2 25.5)">
            <g id="组_1" data-name="组 1" transform="translate(0 0.3)">
              <path id="Shape-6" data-name="Shape" d="M24.1,12.2c-.4,0-.6-.1-.8-.1-2.1,0-3.2.7-3.2,2.2a1.238,1.238,0,0,0,1.3,1.4C23,15.7,24.1,14.3,24.1,12.2Zm2.7,6.3H23.7l.1-1.5a4.508,4.508,0,0,1-3.9,1.7c-2,0-3.4-1.6-3.4-3.9,0-3.4,2.4-5.5,6.5-5.5a8.084,8.084,0,0,1,1.5.1,3.869,3.869,0,0,0,.1-.9c0-.9-.7-1.3-2.4-1.3a13.073,13.073,0,0,0-3.9.6c0-.2.5-3.2.5-3.2a16.5,16.5,0,0,1,4.5-.7c3.2,0,4.9,1.4,4.9,4.1a17.837,17.837,0,0,1-.3,2.8C27.6,13.1,26.9,17.5,26.8,18.5Z" fill="#183265"/>
              <path id="Path-16" data-name="Path" d="M15,18.5H11.2L13.4,5.1,8.6,18.5H6.1L5.8,5.2,3.5,18.5H0L2.9,1.1H8.3l.3,9.8,3.3-9.8h5.9Z" fill="#183265"/>
              <path id="Shape-7" data-name="Shape" d="M82.8,12.2c-.4,0-.6-.1-.8-.1-2.1,0-3.2.7-3.2,2.2a1.238,1.238,0,0,0,1.3,1.4C81.6,15.7,82.7,14.3,82.8,12.2Zm2.7,6.3H82.4l.1-1.5a4.508,4.508,0,0,1-3.9,1.7c-2,0-3.4-1.6-3.4-3.9,0-3.4,2.4-5.5,6.5-5.5a8.084,8.084,0,0,1,1.5.1,8.143,8.143,0,0,0,.2-.9c0-.9-.7-1.3-2.4-1.3a13.072,13.072,0,0,0-3.9.6c0-.2.5-3.2.5-3.2a15.967,15.967,0,0,1,4.5-.7C85.3,3.9,87,5.3,87,8a17.837,17.837,0,0,1-.3,2.8C86.3,13.1,85.6,17.5,85.5,18.5Z" fill="#183265"/>
              <path id="Path-17" data-name="Path" d="M43.4,18.3a9.117,9.117,0,0,1-2.7.5c-1.9,0-2.9-1.1-2.9-3.1,0-.6.3-2.3.5-3.8.2-1.3,1.6-9.6,1.6-9.6h3.7l-.4,2.1h2.2l-.5,3.4H42.6c-.4,2.7-1,6-1.1,6.5,0,.7.4,1,1.3,1a2.787,2.787,0,0,0,1-.1Z" fill="#183265"/>
              <path id="Shape-8" data-name="Shape" d="M54.7,18.2a12.558,12.558,0,0,1-3.8.6c-4.1,0-6.3-2.2-6.3-6.3,0-4.8,2.7-8.4,6.5-8.4a4.751,4.751,0,0,1,5,5.1,12.228,12.228,0,0,1-.5,3.5H48.2c-.2,2,1.1,2.9,3.2,2.9a8.81,8.81,0,0,0,3.8-.9ZM52.6,9.8c0-.3.4-2.5-1.7-2.5-1.2,0-2,.9-2.4,2.5Z" fill="#183265"/>
              <path id="Path-18" data-name="Path" d="M29.1,8.8c0,1.8.9,3,2.8,3.9,1.5.7,1.7.9,1.7,1.6,0,.9-.7,1.3-2.1,1.3a10.039,10.039,0,0,1-3.3-.6s-.5,3.1-.5,3.3a13.478,13.478,0,0,0,3.9.4c3.9,0,5.7-1.5,5.7-4.7a3.869,3.869,0,0,0-2.6-3.9C33.1,9.4,33,9.2,33,8.6q0-1.2,1.8-1.2c.7,0,1.7.1,2.7.2L38,4.3A19.273,19.273,0,0,0,34.7,4C30.5,4.1,29.1,6.2,29.1,8.8Z" fill="#183265"/>
              <path id="Path-19" data-name="Path" d="M72.8,4.4a7.822,7.822,0,0,1,3.3.9l.6-3.8C76.2,1.3,74.2,0,72.6,0a7.337,7.337,0,0,0-6.1,3.3c-2.2-.7-3.1.7-4.1,2.2l-1,.2a6.6,6.6,0,0,0,.1-1.4H58.1c-.5,4.4-1.3,8.8-1.9,13.2l-.2.9h3.7c.6-4,1-6.6,1.2-8.4l1.4-.8c.2-.8.9-1,2.2-1a13.576,13.576,0,0,0-.3,2.9c0,4.6,2.5,7.5,6.5,7.5a11.014,11.014,0,0,0,3.3-.5l.7-4a7.091,7.091,0,0,1-3.2.9c-2.2,0-3.5-1.6-3.5-4.2C68.1,7.1,70,4.4,72.8,4.4Z" fill="#183265"/>
              <path id="Shape-9" data-name="Shape" d="M104.3,1.1l-.8,5c-1-1.3-2.1-2.3-3.6-2.3-1.9,0-3.6,1.4-4.7,3.5A22.13,22.13,0,0,1,92,6.4h0c.1-1.2.2-1.9.2-2.1H88.8c-.5,4.4-1.3,8.8-1.9,13.2l-.2.9h3.7q.75-4.95,1.2-8.1c1.3-1.1,1.9-2.2,3.2-2.1a11.791,11.791,0,0,0-.9,4.6c0,3.5,1.8,5.9,4.5,5.9a4.255,4.255,0,0,0,3.4-1.6l-.2,1.3h3.5L107.9,1h-3.6ZM99.7,15.2c-1.3,0-1.9-.9-1.9-2.8,0-2.8,1.2-4.7,2.9-4.7,1.3,0,2,1,2,2.8C102.6,13.3,101.4,15.2,99.7,15.2Z" fill="#183265"/>
            </g>
            <g id="组_2" data-name="组 2" transform="translate(1.1)">
              <path id="Path-20" data-name="Path" d="M14.9,17.8H11.2L13.3,4.4,8.6,17.8H6L5.7,4.5,3.5,17.8H0L2.9.4H8.3l.1,10.8L12,.4h5.8Z" fill="#fff"/>
              <path id="Shape-10" data-name="Shape" d="M24.1,11.5c-.4,0-.6-.1-.8-.1-2.1,0-3.2.7-3.2,2.1A1.321,1.321,0,0,0,21.4,15C22.9,15,24,13.6,24.1,11.5Zm2.7,6.3H23.7l.1-1.5A4.508,4.508,0,0,1,19.9,18c-2,0-3.4-1.6-3.4-3.9,0-3.4,2.4-5.4,6.5-5.4a8.084,8.084,0,0,1,1.5.1,3.869,3.869,0,0,0,.1-.9c0-.9-.7-1.3-2.4-1.3a13.073,13.073,0,0,0-3.9.6c0-.2.5-3.2.5-3.2a17.125,17.125,0,0,1,4.5-.8c3.2,0,4.9,1.4,4.9,4.1a17.837,17.837,0,0,1-.3,2.8C27.6,12.3,26.9,16.7,26.8,17.8Z" fill="#fff"/>
              <path id="Path-21" data-name="Path" d="M76.7.9l-.6,3.8a6.583,6.583,0,0,0-3.3-.9c-2.8,0-4.7,2.7-4.7,6.5,0,2.6,1.3,4.2,3.5,4.2a7.82,7.82,0,0,0,3.2-.9l-.7,4a11.014,11.014,0,0,1-3.3.5c-4,0-6.5-2.9-6.5-7.5C64.3,4.4,67.7,0,72.7,0A10.241,10.241,0,0,1,76.7.9Z" fill="#fff"/>
              <path id="Shape-11" data-name="Shape" d="M82.7,11.5c-.4,0-.6-.1-.8-.1-2.1,0-3.2.7-3.2,2.1A1.321,1.321,0,0,0,80,15C81.6,15,82.7,13.6,82.7,11.5Zm2.7,6.3H82.3l.1-1.5A4.508,4.508,0,0,1,78.5,18c-2,0-3.4-1.6-3.4-3.9,0-3.4,2.4-5.4,6.5-5.4a8.084,8.084,0,0,1,1.5.1,3.869,3.869,0,0,0,.1-.9c0-.9-.6-1.3-2.4-1.3a13.072,13.072,0,0,0-3.9.6c0-.2.5-3.2.5-3.2a17.183,17.183,0,0,1,4.4-.8c3.2,0,4.9,1.4,4.9,4.1a17.838,17.838,0,0,1-.3,2.8C86.2,12.3,85.5,16.7,85.4,17.8Z" fill="#fff"/>
              <path id="Path-22" data-name="Path" d="M43.3,17.6a9.117,9.117,0,0,1-2.7.5c-1.9,0-2.9-1.1-2.9-3.1,0-.6.3-2.3.5-3.8.2-1.3,1.6-9.6,1.6-9.6h3.7l-.4,2.1H45l-.5,3.4H42.6c-.4,2.7-1,6-1,6.5,0,.7.4,1,1.3,1a2.787,2.787,0,0,0,1-.1Z" fill="#fff"/>
              <path id="Shape-12" data-name="Shape" d="M54.7,17.5a12.558,12.558,0,0,1-3.8.6c-4.1,0-6.3-2.2-6.3-6.3,0-4.8,2.7-8.4,6.5-8.4,3.1,0,5,2,5,5.1a12.228,12.228,0,0,1-.5,3.5H48.2c-.3,2,1.1,2.9,3.2,2.9a9.587,9.587,0,0,0,3.9-.9ZM52.6,9.1c0-.3.4-2.5-1.7-2.5-1.2,0-2,.9-2.4,2.5Z" fill="#fff"/>
              <path id="Path-23" data-name="Path" d="M29,8.1c0,1.8.9,3,2.8,4,1.5.7,1.7.9,1.7,1.6,0,.9-.7,1.3-2.1,1.3a10.039,10.039,0,0,1-3.3-.6s-.5,3.1-.5,3.3a13.478,13.478,0,0,0,3.9.4c3.9,0,5.7-1.5,5.7-4.7a3.869,3.869,0,0,0-2.6-3.9C33,8.8,32.9,8.6,32.9,8q0-1.2,1.8-1.2c.7,0,1.7.1,2.7.2l.5-3.3c-1-.1-2.4-.3-3.3-.3C30.5,3.3,29,5.5,29,8.1Z" fill="#fff"/>
              <path id="Shape-13" data-name="Shape" d="M105.1,17.8h-3.5l.2-1.3a4.4,4.4,0,0,1-3.4,1.6c-2.7,0-4.5-2.3-4.5-5.9,0-4.7,2.8-8.7,6.1-8.7a4.509,4.509,0,0,1,3.6,1.9l.8-5h3.7Zm-5.4-3.3c1.7,0,2.9-2,2.9-4.8,0-1.8-.7-2.8-2-2.8-1.7,0-2.9,2-2.9,4.8C97.7,13.6,98.4,14.5,99.7,14.5Z" fill="#fff"/>
              <path id="Path-24" data-name="Path" d="M88.8,3.6c-.5,4.4-1.3,8.8-1.9,13.2l-.2,1h3.7c1.3-8.6,1.7-10.3,3.7-10.1a12.026,12.026,0,0,1,1.4-4.1c-1.6-.3-2.4.6-3.6,2.2a7.487,7.487,0,0,0,.2-2.1H88.8Z" fill="#fff"/>
              <path id="Path-25" data-name="Path" d="M58.2,3.6c-.5,4.4-1.3,8.8-1.9,13.2l-.2,1h3.7c1.3-8.6,1.7-10.3,3.7-10.1a14.683,14.683,0,0,1,1.4-4.1c-1.6-.3-2.4.6-3.6,2.2a7.487,7.487,0,0,0,.2-2.1H58.2Z" fill="#fff"/>
              <path id="Shape-14" data-name="Shape" d="M106.8,16.7a1.1,1.1,0,1,1,1.1,1.1A1.11,1.11,0,0,1,106.8,16.7Zm1.1.8a.8.8,0,1,0-.8-.8C107,17.1,107.4,17.5,107.9,17.5Zm-.2-.3h-.2v-1h.4c.1,0,.2,0,.2.1a.31.31,0,0,1,.1.2c0,.1-.1.2-.2.3l.2.4h-.3l-.1-.4h-.2v.4Zm0-.6h.2l.1-.1a.1.1,0,0,0-.1-.1h-.2Z" fill="#fff"/>
            </g>
          </g>
        </g>
        <g id="Group-3" data-name="Group" transform="translate(303.9 23.9)">
          <g id="Clipped" transform="translate(66.9 34.6)">
            <rect id="Rectangle" width="9.5" height="5.9" transform="translate(0 0.1)" fill="url(#linear-gradient)"/>
          </g>
          <g id="Clipped-2" data-name="Clipped" transform="translate(61.4)">
            <rect id="Rectangle-2" data-name="Rectangle" width="27.4" height="66.7" transform="translate(0.1)" fill="url(#linear-gradient-2)"/>
          </g>
          <g id="Clipped-3" data-name="Clipped" transform="translate(66.9 25.9)">
            <rect id="Rectangle-3" data-name="Rectangle" width="8.7" height="5.4" transform="translate(0 0.1)" fill="url(#linear-gradient-3)"/>
          </g>
          <g id="Clipped-4" data-name="Clipped">
            <rect id="Rectangle-4" data-name="Rectangle" width="27.4" height="66.7" transform="translate(-0.1)" fill="url(#linear-gradient-4)"/>
          </g>
          <g id="Clipped-5" data-name="Clipped" transform="translate(30.7)">
            <rect id="Rectangle-5" data-name="Rectangle" width="27.4" height="66.7" fill="url(#linear-gradient-5)"/>
          </g>
        </g>
        <g id="ic_visa_color" transform="translate(31 35)">
          <path id="Shape-15" data-name="Shape" d="M51.6.765l-18.373,41.8h-11.6L13.338,9.205c-.5-2.053-.953-2.807-2.557-3.671A45.809,45.809,0,0,0,0,1.977L.276.765H18.958a5.006,5.006,0,0,1,5,4.261l4.285,24.189L40.071.765ZM96.68,28.917c.2-11.031-15.325-11.64-15.149-16.569.056-1.5,1.527-3.092,4.706-3.5a20.882,20.882,0,0,1,10.8,1.87l2.053-8.863A29.678,29.678,0,0,0,88.842,0C77.991,0,70.273,5.683,70.1,13.817c-.157,6.02,5.32,9.375,9.453,11.377,4.246,2.049,5.663,3.362,5.621,5.194-.071,2.806-3.468,4.043-6.629,4.091a23.019,23.019,0,0,1-11.238-2.641L65.189,41a33.434,33.434,0,0,0,12.178,2.22c11.534,0,19.156-5.609,19.313-14.3m28.466,13.648H135.3L127.022.765h-9.371a5.084,5.084,0,0,0-4.716,3.065L95.919,42.565h11.526l2.378-6.245h14.084l1.24,6.245ZM113.1,27.753l6-15.695,3.107,15.695ZM67.29.765l-9.664,41.8H46.645L56.314.765Z" fill="#1434cb"/>
        </g>
      </g>
    </g>
    <g id="Page-1-2" data-name="Page-1" transform="translate(2311 1970.502)">
      <g id="pp_fc_hl">
        <g id="pp_h_rgb">
          <path id="Fill-1" d="M190.422,26.432c-.737,4.841-4.434,4.841-8.01,4.841h-2.035l1.427-9.038a1.124,1.124,0,0,1,1.11-.948h.933c2.433,0,4.733,0,5.918,1.387a4.5,4.5,0,0,1,.656,3.759ZM188.865,13.8H175.38a1.873,1.873,0,0,0-1.85,1.582l-5.453,34.578a1.124,1.124,0,0,0,1.11,1.3h6.919a1.311,1.311,0,0,0,1.3-1.107l1.547-9.8a1.873,1.873,0,0,1,1.85-1.582h4.267c8.882,0,14.008-4.3,15.348-12.818.6-3.726.024-6.654-1.721-8.7C196.776,15,193.377,13.8,188.865,13.8Z" fill="#2790c3" fill-rule="evenodd"/>
          <path id="Fill-2" d="M94.242,26.432c-.737,4.841-4.434,4.841-8.009,4.841H84.2l1.427-9.038a1.125,1.125,0,0,1,1.11-.948h.933c2.434,0,4.733,0,5.918,1.387a4.5,4.5,0,0,1,.656,3.759ZM92.686,13.8H79.2a1.873,1.873,0,0,0-1.85,1.582L71.9,49.963a1.124,1.124,0,0,0,1.11,1.3h6.439A1.874,1.874,0,0,0,81.3,49.681l1.472-9.328a1.873,1.873,0,0,1,1.85-1.582h4.267c8.882,0,14.008-4.3,15.348-12.818.6-3.726.024-6.654-1.721-8.7C100.6,15,97.2,13.8,92.686,13.8Z" fill="#27346a" fill-rule="evenodd"/>
          <path id="Fill-3" d="M123.992,38.845a7.2,7.2,0,0,1-7.288,6.167,5,5,0,0,1-5.348-6.279,7.227,7.227,0,0,1,7.236-6.213,5.443,5.443,0,0,1,4.305,1.759,5.562,5.562,0,0,1,1.095,4.566Zm9-12.568h-6.457a1.123,1.123,0,0,0-1.11.949l-.284,1.805-.452-.655c-1.4-2.03-4.515-2.708-7.627-2.708-7.134,0-13.228,5.406-14.414,12.988a12.189,12.189,0,0,0,2.4,9.92c1.97,2.318,4.782,3.283,8.133,3.283a12.363,12.363,0,0,0,8.939-3.694l-.288,1.795a1.124,1.124,0,0,0,1.11,1.3h5.815a1.873,1.873,0,0,0,1.85-1.581l3.491-22.1a1.123,1.123,0,0,0-1.11-1.3Z" fill="#27346a" fill-rule="evenodd"/>
          <path id="Fill-4" d="M220.172,38.845a7.2,7.2,0,0,1-7.288,6.167,5,5,0,0,1-5.348-6.279,7.226,7.226,0,0,1,7.236-6.213,5.441,5.441,0,0,1,4.3,1.759,5.562,5.562,0,0,1,1.095,4.566Zm9-12.568h-6.457a1.123,1.123,0,0,0-1.11.949l-.284,1.805-.451-.655c-1.4-2.03-4.515-2.708-7.627-2.708-7.133,0-13.228,5.406-14.414,12.988a12.193,12.193,0,0,0,2.4,9.92c1.971,2.318,4.782,3.283,8.133,3.283a12.363,12.363,0,0,0,8.939-3.694l-.288,1.795a1.124,1.124,0,0,0,1.11,1.3h5.815a1.874,1.874,0,0,0,1.851-1.581l3.49-22.1a1.123,1.123,0,0,0-1.11-1.3Z" fill="#2790c3" fill-rule="evenodd"/>
          <g id="Group-10">
            <path id="Fill-5" d="M167.382,26.278h-6.49a1.874,1.874,0,0,0-1.55.821l-8.953,13.186-3.795-12.671a1.873,1.873,0,0,0-1.795-1.336h-6.38a1.124,1.124,0,0,0-1.064,1.487L144.5,48.741l-6.722,9.485A1.124,1.124,0,0,0,138.7,60h6.484a1.873,1.873,0,0,0,1.54-.807l21.584-31.151a1.125,1.125,0,0,0-.924-1.765" fill="#27346a" fill-rule="evenodd"/>
            <path id="Fill-7" d="M236.781,14.753l-5.535,35.21a1.124,1.124,0,0,0,1.11,1.3h5.567a1.873,1.873,0,0,0,1.85-1.581L245.231,15.1a1.124,1.124,0,0,0-1.11-1.3h-6.229a1.124,1.124,0,0,0-1.11.95" fill="#2790c3" fill-rule="evenodd"/>
            <path id="Fill-8" d="M25.547,57.548l1.813-11.495.117-.637a2.361,2.361,0,0,1,2.332-1.992h1.439a26.226,26.226,0,0,0,6.552-.762,16.623,16.623,0,0,0,5.5-2.493,14.847,14.847,0,0,0,4.149-4.54,21.463,21.463,0,0,0,2.513-6.909,18.078,18.078,0,0,0,.255-6.235,9.407,9.407,0,0,0-2.17-4.809,9.166,9.166,0,0,0-2.621-2.021l-.025-.013v-.03a15.55,15.55,0,0,0-.042-5.969A10.586,10.586,0,0,0,42.9,5.015C40.3,2.048,35.562.544,28.828.544H10.334A2.6,2.6,0,0,0,7.767,2.738L.066,51.57a1.542,1.542,0,0,0,1.522,1.781H13.061l-.01.055-.788,5a1.344,1.344,0,0,0,1.325,1.552h9.623a2.27,2.27,0,0,0,2.241-1.915l.095-.49" fill="#27346a" fill-rule="evenodd"/>
            <path id="Fill-9" d="M18.954,15.676a2.313,2.313,0,0,1,2.286-1.955h14.5a30.243,30.243,0,0,1,4.783.348q.627.1,1.221.233t1.151.295c.186.054.368.111.548.171a13.1,13.1,0,0,1,2,.846c.726-4.628,0-7.778-2.508-10.631C40.178,1.843,35.2.5,28.828.5H10.334A2.646,2.646,0,0,0,7.721,2.731L.02,51.563A1.587,1.587,0,0,0,1.588,53.4H13l5.949-37.721" fill="#27346a" fill-rule="evenodd"/>
          </g>
          <path id="Fill-11" d="M45.443,15.615h0c-.055.353-.116.713-.189,1.083C42.816,29.219,34.472,33.548,23.815,33.548H18.388a2.637,2.637,0,0,0-2.6,2.234L12.217,58.4A1.389,1.389,0,0,0,13.588,60h9.624A2.314,2.314,0,0,0,25.5,58.046l.095-.489,1.813-11.5.117-.635a2.314,2.314,0,0,1,2.286-1.954h1.439c9.323,0,16.623-3.788,18.756-14.742.891-4.577.43-8.4-1.927-11.084a9.166,9.166,0,0,0-2.635-2.032" fill="#2790c3" fill-rule="evenodd"/>
          <path id="Fill-12" d="M42.891,14.6q-.557-.164-1.151-.295t-1.221-.233a30.243,30.243,0,0,0-4.783-.348H21.24a2.313,2.313,0,0,0-2.286,1.955L15.873,35.212l-.089.57a2.637,2.637,0,0,1,2.6-2.234h5.427c10.657,0,19-4.329,21.439-16.851.073-.37.134-.73.189-1.083a13.1,13.1,0,0,0-2-.846c-.18-.06-.362-.117-.548-.171" fill="#1f264f" fill-rule="evenodd"/>
        </g>
      </g>
    </g>
  </g>
</svg>
