<?xml version="1.0" encoding="UTF-8"?>
<svg width="530px" height="114px" viewBox="0 0 530 114" version="1.1" xmlns="http://www.w3.org/2000/svg" xmlns:xlink="http://www.w3.org/1999/xlink">
    <title>card_icon</title>
    <defs>
        <path d="M0,0.1 L0,6 L6.4,6 C6.6,6 7,6 7.2,5.9 C8.4,5.6 9.5,4.5 9.5,3 C9.5,1.5 8.5,0.4 7.2,0.1 C7,0.1 6.6,0 6.4,0 L0,0 L0,0.1 Z" id="path-1"></path>
        <linearGradient x1="-54.657708%" y1="49.8902051%" x2="234.837438%" y2="49.8902051%" id="linearGradient-3">
            <stop stop-color="#0C763F" offset="0%"></stop>
            <stop stop-color="#167D3E" offset="11.52%"></stop>
            <stop stop-color="#469D37" offset="70.62%"></stop>
            <stop stop-color="#59AA35" offset="100%"></stop>
        </linearGradient>
        <path d="M11.2,0 C5.1,0 0.1,5 0.1,11.1 L0.1,22.6 L15.8,22.6 C16.2,22.6 16.6,22.6 16.9,22.6 C20.5,22.8 23.1,24.6 23.1,27.8 C23.1,30.3 21.3,32.4 18,32.9 L18,33 C21.6,33.3 24.4,35.2 24.4,38.4 C24.4,41.8 21.4,44 17.3,44 L0,44 L0,66.7 L16.3,66.7 C22.4,66.7 27.4,61.7 27.4,55.6 L27.4,0 L11.2,0 Z" id="path-4"></path>
        <linearGradient x1="0.74732427%" y1="50.016051%" x2="101.021145%" y2="50.016051%" id="linearGradient-6">
            <stop stop-color="#00723C" offset="0%"></stop>
            <stop stop-color="#12803A" offset="18.77%"></stop>
            <stop stop-color="#42A434" offset="73.02%"></stop>
            <stop stop-color="#55B232" offset="100%"></stop>
        </linearGradient>
        <path d="M0,0.1 L0,5.5 L5.8,5.5 C6,5.5 6.3,5.5 6.4,5.4 C7.6,5.2 8.6,4.2 8.6,2.7 C8.6,1.2 7.6,0.3 6.4,-7.10542736e-15 C6.3,-7.10542736e-15 6,-7.10542736e-15 5.8,-7.10542736e-15 L0,-7.10542736e-15 L0,0.1 Z" id="path-7"></path>
        <linearGradient x1="-59.6389923%" y1="49.9017872%" x2="256.313053%" y2="49.9017872%" id="linearGradient-9">
            <stop stop-color="#0C763F" offset="0%"></stop>
            <stop stop-color="#167D3E" offset="11.52%"></stop>
            <stop stop-color="#469D37" offset="70.62%"></stop>
            <stop stop-color="#59AA35" offset="100%"></stop>
        </linearGradient>
        <path d="M11.1,0 C4.9,0 0,5 0,11.1 L0,38.6 C3.1,40.1 6.3,41.1 9.6,41.1 C13.4,41.1 15.6,38.7 15.6,35.6 L15.6,22.7 L25.2,22.7 L25.2,35.6 C25.2,40.6 22.1,44.7 11.5,44.7 C5.1,44.7 0.1,43.3 0.1,43.3 L0.1,66.7 L16.4,66.7 C22.5,66.7 27.5,61.7 27.5,55.6 L27.5,0 L11.1,0 Z" id="path-10"></path>
        <linearGradient x1="0.956951095%" y1="50.0170244%" x2="101.052188%" y2="50.0170244%" id="linearGradient-12">
            <stop stop-color="#1F2A66" offset="0%"></stop>
            <stop stop-color="#1A3573" offset="14.35%"></stop>
            <stop stop-color="#0A5EA4" offset="71.61%"></stop>
            <stop stop-color="#036EB7" offset="100%"></stop>
        </linearGradient>
        <path d="M11.1,0 C5,0 0,5 0,11.1 L0,25.7 C2.8,23.3 7.7,21.8 15.6,22.1 C19.8,22.3 24.3,23.4 24.3,23.4 L24.3,28.1 C22,27 19.3,25.9 15.9,25.6 C9.9,25.1 6.3,28.1 6.3,33.3 C6.3,38.5 9.9,41.4 15.9,41 C19.4,40.7 22.1,39.7 24.3,38.6 L24.3,43.3 C24.3,43.3 19.8,44.4 15.6,44.6 C7.7,45 2.8,43.4 0,41 L0,66.7 L16.3,66.7 C22.4,66.7 27.4,61.7 27.4,55.6 L27.4,0 L11.1,0 Z" id="path-13"></path>
        <linearGradient x1="0.881172993%" y1="50.0151259%" x2="101.000812%" y2="50.0151259%" id="linearGradient-15">
            <stop stop-color="#6E172C" offset="0%"></stop>
            <stop stop-color="#90122F" offset="28.5%"></stop>
            <stop stop-color="#C30B33" offset="76.46%"></stop>
            <stop stop-color="#D70835" offset="100%"></stop>
        </linearGradient>
    </defs>
    <g id="Page-1" stroke="none" stroke-width="1" fill="none" fill-rule="evenodd">
        <g id="card_icon">
            <g id="Group" transform="translate(407.123595, 28.700000)">
                <path d="M17.8764047,-7.10542736e-15 L40.6764047,-7.10542736e-15 C43.8764047,-7.10542736e-15 45.8764047,2.6 45.0764047,5.8 L34.4764047,51.3 C33.7764047,54.5 30.5764047,57.1 27.3764047,57.1 L4.57640469,57.1 C1.37640469,57.1 -0.623595313,54.5 0.176404687,51.3 L10.7764047,5.8 C11.4764047,2.6 14.6764047,-7.10542736e-15 17.8764047,-7.10542736e-15 L17.8764047,-7.10542736e-15 Z" id="Path" fill="#D70C18" fill-rule="nonzero"></path>
                <path d="M38.6764047,-7.10542736e-15 L61.4764047,-7.10542736e-15 C64.6764047,-7.10542736e-15 66.6764047,2.6 65.8764047,5.8 L55.2764047,51.3 C54.5764047,54.5 51.3764047,57.1 48.1764047,57.1 L25.3764047,57.1 C22.1764047,57.1 20.2764047,54.5 20.9764047,51.3 L31.5764047,5.8 C32.3764047,2.6 35.4764047,-7.10542736e-15 38.6764047,-7.10542736e-15 L38.6764047,-7.10542736e-15 Z" id="Path" fill="#00469B" fill-rule="nonzero"></path>
                <path d="M63.8764047,-7.10542736e-15 L86.6764047,-7.10542736e-15 C89.8764047,-7.10542736e-15 91.8764047,2.6 91.0764047,5.8 L80.4764047,51.3 C79.7764047,54.5 76.5764047,57.1 73.3764047,57.1 L50.5764047,57.1 C47.3764047,57.1 45.3764047,54.5 46.1764047,51.3 L56.7764047,5.8 C57.4764047,2.6 60.6764047,-7.10542736e-15 63.8764047,-7.10542736e-15 L63.8764047,-7.10542736e-15 Z" id="Path" fill="#2E7E7F" fill-rule="nonzero"></path>
                <path d="M60.3764047,42.8 L62.4764047,42.8 L62.9764047,40.7 L60.8764047,40.7 L60.3764047,42.8 Z M61.6764047,37.1 L61.0764047,39.5 C61.0764047,39.5 61.8764047,39.1 62.2764047,39 C62.6764047,38.9 63.3764047,38.8 63.3764047,38.8 L63.7764047,37.1 L61.6764047,37.1 L61.6764047,37.1 Z M62.4764047,33.6 L61.9764047,35.9 C61.9764047,35.9 62.7764047,35.5 63.1764047,35.4 C63.5764047,35.3 64.2764047,35.2 64.2764047,35.2 L64.6764047,33.5 L62.4764047,33.5 L62.4764047,33.6 Z M67.2764047,33.6 L65.1764047,42.8 L65.8764047,42.8 L65.4764047,44.7 L64.6764047,44.7 L64.5764047,45.3 L61.9764047,45.3 L62.0764047,44.7 L56.6764047,44.7 L57.0764047,42.9 L57.5764047,42.9 L59.7764047,33.6 L60.1764047,31.7 L62.8764047,31.7 L62.6764047,32.7 C62.6764047,32.7 63.3764047,32.2 64.0764047,32 C64.7764047,31.8 68.6764047,31.8 68.6764047,31.8 L68.1764047,33.7 L67.2764047,33.7 L67.2764047,33.6 Z" id="Shape" fill="#FFFFFF"></path>
                <path d="M68.7764047,31.8 L71.6764047,31.8 L71.6764047,32.9 C71.6764047,33.1 71.7764047,33.2 72.1764047,33.2 L72.6764047,33.2 L72.2764047,35 L70.7764047,35 C69.3764047,35.1 68.8764047,34.5 68.9764047,33.9 L68.7764047,31.8 Z" id="Path" fill="#FFFFFF"></path>
                <path d="M69.2764047,40.2 L66.5764047,40.2 L66.9764047,38.6 L70.0764047,38.6 L70.4764047,37.2 L67.3764047,37.2 L67.7764047,35.4 L76.3764047,35.4 L75.9764047,37.2 L73.0764047,37.2 L72.7764047,38.6 L75.6764047,38.6 L75.2764047,40.2 L72.1764047,40.2 L71.6764047,40.9 L72.9764047,40.9 L73.4764047,42.9 C73.4764047,43.1 73.5764047,43.2 73.5764047,43.3 C73.6764047,43.4 74.0764047,43.4 74.2764047,43.4 L74.6764047,43.4 L74.1764047,45.3 L73.1764047,45.3 C73.0764047,45.3 72.7764047,45.3 72.4764047,45.3 C72.1764047,45.3 71.9764047,45.1 71.7764047,45 C71.5764047,44.9 71.2764047,44.7 71.1764047,44.3 L70.7764047,42.3 L69.4764047,44.3 C69.0764047,44.9 68.4764047,45.4 67.4764047,45.4 L65.4764047,45.4 L65.8764047,43.7 L66.6764047,43.7 C66.8764047,43.7 67.0764047,43.6 67.2764047,43.5 C67.3764047,43.4 67.5764047,43.4 67.6764047,43.2 L69.2764047,40.2 Z" id="Path" fill="#FFFFFF"></path>
                <path d="M38.9764047,35.8 L46.2764047,35.8 L45.8764047,37.5 L42.9764047,37.5 L42.5764047,39 L45.5764047,39 L45.1764047,40.8 L42.1764047,40.8 L41.5764047,43.2 C41.4764047,43.5 42.2764047,43.5 42.5764047,43.5 L44.0764047,43.3 L43.5764047,45.3 L40.1764047,45.3 C39.8764047,45.3 39.6764047,45.3 39.3764047,45.2 C39.0764047,45.1 38.9764047,45 38.7764047,44.8 C38.6764047,44.6 38.4764047,44.5 38.5764047,44 L39.3764047,40.8 L37.7764047,40.8 L38.1764047,39 L39.8764047,39 L40.2764047,37.5 L38.6764047,37.5 L38.9764047,35.8 Z" id="Path" fill="#FFFFFF"></path>
                <path d="M43.6764047,32.7 L46.6764047,32.7 L46.2764047,34.5 L42.1764047,34.5 L41.7764047,34.9 C41.5764047,35.1 41.5764047,35 41.2764047,35.1 C41.0764047,35.2 40.5764047,35.5 39.9764047,35.5 L38.6764047,35.5 L39.0764047,33.8 L39.4764047,33.8 C39.7764047,33.8 40.0764047,33.8 40.1764047,33.7 C40.2764047,33.6 40.4764047,33.4 40.5764047,33.1 L41.2764047,31.7 L44.2764047,31.7 L43.6764047,32.7 Z" id="Path" fill="#FFFFFF"></path>
                <path d="M49.5764047,35.7 C49.5764047,35.7 50.3764047,35 51.6764047,34.7 C51.9764047,34.6 53.9764047,34.7 53.9764047,34.7 L54.1764047,33.7 L49.9764047,33.7 L49.5764047,35.7 Z M53.5764047,36.5 L49.3764047,36.5 L49.1764047,37.3 L52.7764047,37.3 C53.1764047,37.3 53.2764047,37.3 53.2764047,37.3 L53.5764047,36.5 Z M47.8764047,31.8 L50.3764047,31.8 L50.0764047,33.1 C50.0764047,33.1 50.8764047,32.5 51.3764047,32.2 C51.8764047,32 53.1764047,31.8 53.1764047,31.8 L57.2764047,31.8 L56.1764047,36.5 C55.9764047,37.3 55.7764047,37.8 55.5764047,38 C55.4764047,38.2 55.2764047,38.4 54.8764047,38.6 C54.5764047,38.8 54.2764047,38.9 53.9764047,38.9 C53.6764047,38.9 53.2764047,38.9 52.6764047,38.9 L48.6764047,38.9 L47.7764047,42.6 C47.6764047,43 47.6764047,43.1 47.6764047,43.2 C47.7764047,43.3 47.8764047,43.4 48.0764047,43.4 L49.7764047,43.2 L49.2764047,45.2 L47.2764047,45.2 C46.6764047,45.2 46.1764047,45.2 45.8764047,45.2 C45.5764047,45.2 45.2764047,45.2 45.0764047,45 C44.8764047,44.8 44.5764047,44.6 44.5764047,44.4 C44.5764047,44.2 44.6764047,43.9 44.7764047,43.4 L47.8764047,31.8 Z" id="Shape" fill="#FFFFFF"></path>
                <path d="M55.6764047,39.3 L55.4764047,40.4 C55.3764047,40.7 55.2764047,41 55.0764047,41.2 C54.7764047,41.4 54.4764047,41.7 53.7764047,41.7 L52.3764047,41.8 L52.4764047,43.1 C52.4764047,43.5 52.5764047,43.4 52.6764047,43.5 C52.7764047,43.6 52.7764047,43.6 52.8764047,43.6 L53.2764047,43.6 L54.5764047,43.5 L54.1764047,45.4 L52.6764047,45.4 C51.5764047,45.4 50.7764047,45.4 50.4764047,45.2 C50.1764047,45 50.1764047,44.8 50.1764047,44.5 L49.9764047,39.6 L52.4764047,39.6 L52.4764047,40.6 L53.0764047,40.6 C53.2764047,40.6 53.3764047,40.6 53.4764047,40.5 C53.5764047,40.4 53.5764047,40.4 53.5764047,40.2 L53.7764047,39.4 L55.6764047,39.4 L55.6764047,39.3 Z" id="Path" fill="#FFFFFF"></path>
                <path d="M20.4764047,14.6 C20.3764047,15 18.7764047,22.3 18.7764047,22.3 C18.4764047,23.8 18.1764047,24.8 17.3764047,25.5 C16.8764047,25.9 16.3764047,26.1 15.6764047,26.1 C14.6764047,26.1 14.0764047,25.6 13.8764047,24.6 L13.8764047,24.3 C13.8764047,24.3 14.1764047,22.3 14.1764047,22.3 C14.1764047,22.3 15.8764047,15.7 16.1764047,14.8 C16.1764047,14.7 16.1764047,14.7 16.1764047,14.7 C12.9764047,14.7 12.3764047,14.7 12.3764047,14.7 C12.3764047,14.8 12.2764047,15.2 12.2764047,15.2 L10.5764047,22.7 L10.4764047,23.3 L10.1764047,25.4 C10.1764047,26 10.2764047,26.5 10.5764047,26.9 C11.3764047,28.3 13.5764047,28.5 14.7764047,28.5 C16.3764047,28.5 17.8764047,28.1 18.8764047,27.5 C20.6764047,26.5 21.0764047,24.8 21.4764047,23.4 L21.6764047,22.7 C21.6764047,22.7 23.3764047,15.8 23.6764047,14.9 C23.6764047,14.9 23.6764047,14.8 23.6764047,14.8 C21.4764047,14.6 20.7764047,14.6 20.4764047,14.6 Z" id="Path" fill="#FFFFFF" fill-rule="nonzero"></path>
                <path d="M29.9764047,28.3 C28.7764047,28.3 28.4764047,28.3 27.0764047,28.3 L26.9764047,28.2 C27.0764047,27.7 27.1764047,27.2 27.3764047,26.7 L27.5764047,26 C27.8764047,24.9 28.0764047,23.7 28.0764047,23.3 C28.0764047,23.1 28.1764047,22.5 27.4764047,22.5 C27.1764047,22.5 26.8764047,22.6 26.5764047,22.8 C26.3764047,23.4 26.0764047,25 25.9764047,25.7 C25.6764047,27.3 25.5764047,27.4 25.4764047,28.2 L25.3764047,28.3 C24.1764047,28.3 23.7764047,28.3 22.4764047,28.3 L22.3764047,28.2 C22.5764047,27.3 22.8764047,26.3 23.0764047,25.4 C23.6764047,22.9 23.7764047,21.9 23.9764047,20.7 L24.0764047,20.6 C25.3764047,20.4 25.6764047,20.4 27.1764047,20.1 L27.2764047,20.2 L27.0764047,21 C27.2764047,20.9 27.5764047,20.7 27.7764047,20.6 C28.4764047,20.3 29.1764047,20.2 29.5764047,20.2 C30.1764047,20.2 30.8764047,20.4 31.1764047,21.1 C31.4764047,21.7 31.2764047,22.5 30.8764047,24.1 L30.6764047,24.9 C30.2764047,26.7 30.2764047,27 30.0764047,28.2 L29.9764047,28.3 Z" id="Path" fill="#FFFFFF" fill-rule="nonzero"></path>
                <path d="M34.6764047,28.3 C33.9764047,28.3 33.5764047,28.3 33.0764047,28.3 C32.6764047,28.3 32.2764047,28.3 31.5764047,28.4 L31.5764047,28.3 L31.5764047,28.3 C31.7764047,27.6 31.8764047,27.4 31.9764047,27.2 C32.0764047,27 32.1764047,26.7 32.2764047,26.1 C32.4764047,25.2 32.5764047,24.6 32.6764047,24.1 C32.7764047,23.6 32.7764047,23.1 32.8764047,22.6 L32.9764047,22.6 L33.0764047,22.6 C33.7764047,22.5 34.1764047,22.4 34.6764047,22.4 C35.0764047,22.3 35.5764047,22.3 36.2764047,22.1 L36.2764047,22.2 L36.2764047,22.3 C36.1764047,22.8 35.9764047,23.4 35.8764047,23.9 C35.7764047,24.4 35.5764047,25 35.4764047,25.5 C35.1764047,26.7 35.0764047,27.1 35.0764047,27.4 C34.9764047,27.7 34.9764047,27.9 34.8764047,28.4 L34.6764047,28.3 L34.6764047,28.3 Z" id="Path" fill="#FFFFFF" fill-rule="nonzero"></path>
                <path d="M41.8764047,24.2 C41.7764047,24.5 41.5764047,25.6 41.1764047,26.1 C40.9764047,26.4 40.6764047,26.6 40.2764047,26.6 C40.1764047,26.6 39.5764047,26.6 39.5764047,25.8 C39.5764047,25.4 39.6764047,25 39.7764047,24.5 C40.0764047,23.2 40.4764047,22.1 41.3764047,22.1 C42.1764047,22 42.1764047,22.8 41.8764047,24.2 Z M44.8764047,24.3 C45.2764047,22.5 44.9764047,21.7 44.5764047,21.2 C43.9764047,20.4 42.9764047,20.2 41.8764047,20.2 C41.1764047,20.2 39.6764047,20.3 38.4764047,21.4 C37.5764047,22.2 37.1764047,23.3 36.9764047,24.4 C36.7764047,25.5 36.4764047,27.4 38.1764047,28.1 C38.7764047,28.3 39.4764047,28.4 40.0764047,28.4 C41.3764047,28.4 42.6764047,28 43.7764047,27 C44.4764047,26.1 44.7764047,24.9 44.8764047,24.3 Z" id="Shape" fill="#FFFFFF" fill-rule="nonzero"></path>
                <path d="M74.6764047,20.3 C73.2764047,20.6 72.8764047,20.6 71.4764047,20.8 L71.3764047,20.9 C71.3764047,21 71.3764047,21.1 71.3764047,21.2 C71.1764047,20.8 70.8764047,20.5 70.3764047,20.4 C69.7764047,20.2 68.3764047,20.5 67.0764047,21.6 C66.1764047,22.4 65.7764047,23.5 65.5764047,24.5 C65.3764047,25.6 65.0764047,27.5 66.7764047,28.2 C67.3764047,28.4 67.8764047,28.5 68.3764047,28.5 C68.8764047,28.5 69.3764047,28.2 69.8764047,27.8 C69.8764047,28 69.7764047,28.1 69.7764047,28.3 L69.8764047,28.4 C71.1764047,28.3 71.5764047,28.3 72.9764047,28.4 L73.0764047,28.3 C73.2764047,27.1 73.4764047,26 73.9764047,23.7 C74.2764047,22.6 74.4764047,21.5 74.7764047,20.5 L74.6764047,20.3 Z M70.1764047,26.2 C69.9764047,26.5 69.3764047,26.7 69.0764047,26.7 C68.9764047,26.7 68.3764047,26.7 68.3764047,25.9 C68.3764047,25.5 68.4764047,25.1 68.5764047,24.6 C68.8764047,23.3 69.2764047,22.2 70.1764047,22.2 C70.7764047,22.2 71.0764047,22.8 70.9764047,23.7 C70.9764047,23.9 70.8764047,24.1 70.8764047,24.4 C70.7764047,24.8 70.6764047,25.2 70.5764047,25.6 C70.3764047,25.8 70.2764047,26.1 70.1764047,26.2 Z" id="Shape" fill="#FFFFFF" fill-rule="nonzero"></path>
                <path d="M52.7764047,28.3 C51.6764047,28.3 51.2764047,28.3 49.8764047,28.3 L49.7764047,28.2 C49.8764047,27.7 49.9764047,27.2 50.1764047,26.7 L50.2764047,26 C50.5764047,24.9 50.7764047,23.7 50.7764047,23.3 C50.7764047,23.1 50.8764047,22.5 50.1764047,22.5 C49.8764047,22.5 49.5764047,22.6 49.2764047,22.8 C49.0764047,23.4 48.7764047,25 48.6764047,25.7 C48.3764047,27.3 48.2764047,27.4 48.1764047,28.2 L48.0764047,28.3 C46.8764047,28.3 46.4764047,28.3 45.1764047,28.3 L45.0764047,28.2 C45.2764047,27.3 45.4764047,26.3 45.7764047,25.4 C46.3764047,22.9 46.4764047,21.9 46.6764047,20.7 L46.7764047,20.6 C48.0764047,20.4 48.3764047,20.4 49.8764047,20.1 L49.9764047,20.2 L49.7764047,21 C49.9764047,20.9 50.2764047,20.7 50.4764047,20.6 C51.1764047,20.3 51.8764047,20.2 52.2764047,20.2 C52.8764047,20.2 53.5764047,20.4 53.8764047,21.1 C54.1764047,21.7 53.9764047,22.5 53.5764047,24.1 L53.3764047,24.9 C52.9764047,26.7 52.9764047,27 52.7764047,28.2 L52.7764047,28.3 Z" id="Path" fill="#FFFFFF" fill-rule="nonzero"></path>
                <path d="M62.6764047,14.5 L61.6764047,14.5 C59.1764047,14.5 58.1764047,14.5 57.7764047,14.5 C57.7764047,14.7 57.6764047,15 57.6764047,15 L56.7764047,19.1 C56.7764047,19.1 54.6764047,27.8 54.5764047,28.3 C56.7764047,28.3 57.5764047,28.3 57.9764047,28.3 C58.0764047,27.9 58.5764047,25.5 58.5764047,25.4 C58.5764047,25.4 58.9764047,23.6 59.0764047,23.6 C59.0764047,23.6 59.1764047,23.4 59.3764047,23.3 L59.5764047,23.3 C61.4764047,23.3 63.5764047,23.3 65.1764047,22.1 C66.2764047,21.3 67.0764047,20 67.3764047,18.6 C67.4764047,18.2 67.5764047,17.8 67.5764047,17.3 C67.5764047,16.7 67.4764047,16.2 67.1764047,15.7 C66.2764047,14.6 64.5764047,14.6 62.6764047,14.5 Z M63.8764047,18.8 C63.6764047,19.7 63.0764047,20.5 62.2764047,20.9 C61.6764047,21.2 60.8764047,21.2 60.0764047,21.2 L59.5764047,21.2 L59.5764047,21 C59.5764047,21 60.4764047,16.9 60.4764047,16.9 L60.4764047,16.7 L60.4764047,16.5 L60.8764047,16.5 C60.8764047,16.5 62.7764047,16.7 62.8764047,16.7 C63.7764047,17.1 64.0764047,17.8 63.8764047,18.8 Z" id="Shape" fill="#FFFFFF" fill-rule="nonzero"></path>
                <path d="M35.8764047,21.2 C36.6764047,20.7 36.6764047,19.9 36.0764047,19.6 C35.4764047,19.2 34.2764047,19.3 33.5764047,19.9 C32.7764047,20.4 32.6764047,21.2 33.3764047,21.5 C33.9764047,21.9 35.0764047,21.8 35.8764047,21.2 Z" id="Path" fill="#FFFFFF" fill-rule="nonzero"></path>
                <path d="M84.1764047,20.3 L84.0764047,20.2 C82.6764047,20.5 82.3764047,20.5 81.0764047,20.7 L80.9764047,20.8 C80.9764047,20.8 80.9764047,20.8 80.9764047,20.9 L80.9764047,20.9 C79.9764047,23.1 80.0764047,22.7 79.2764047,24.4 C79.2764047,24.3 79.2764047,24.3 79.2764047,24.2 L79.0764047,20.4 L78.9764047,20.3 C77.4764047,20.6 77.4764047,20.6 76.0764047,20.8 L75.9764047,20.9 C75.9764047,21 75.9764047,21 75.9764047,21.1 L75.9764047,21.1 C76.1764047,22 76.0764047,21.8 76.2764047,23.2 C76.3764047,23.9 76.4764047,24.6 76.5764047,25.2 C76.6764047,26.3 76.7764047,26.9 76.9764047,28.6 C76.0764047,30.1 75.8764047,30.7 74.9764047,32 L74.9764047,32 L74.3764047,33 C74.2764047,33.1 74.2764047,33.2 74.1764047,33.2 C74.0764047,33.2 73.9764047,33.3 73.7764047,33.3 L73.1764047,33.3 L72.7764047,35.1 L74.5764047,35.1 C75.5764047,35.1 76.2764047,34.6 76.5764047,33.9 L77.6764047,32 L84.1764047,20.3 Z" id="Path" fill="#FFFFFF"></path>
            </g>
            <g id="Group" transform="translate(175.500000, 23.000000)" fill-rule="nonzero">
                <g id="Path">
                    <path d="M68.6,34.3 C68.6,53.2 53.2,68.6 34.3,68.6 C15.4,68.6 0,53.3 0,34.3 C0,15.4 15.4,7.10542736e-15 34.3,7.10542736e-15 C53.3,7.10542736e-15 68.6,15.3 68.6,34.3 Z" fill="#D60D18"></path>
                    <path d="M80.4,3.55271368e-15 C71.5,3.55271368e-15 63.5,3.4 57.4,8.9 C56.2,10 55,11.2 54,12.5 L60.9,12.5 C61.8,13.6 62.7,14.9 63.5,16.1 L51.3,16.1 C50.6,17.3 49.9,18.5 49.3,19.7 L65.4,19.7 C66,20.9 66.4,22.1 66.9,23.3 L47.9,23.3 C47.5,24.5 47.2,25.7 46.9,26.9 L67.9,26.9 C68.4,29.2 68.7,31.7 68.7,34.2 C68.7,38 68.1,41.7 66.9,45.1 L47.9,45.1 C48.3,46.3 48.8,47.6 49.4,48.7 L65.5,48.7 C64.9,49.9 64.3,51.2 63.5,52.3 L51.3,52.3 C52.1,53.6 53,54.8 53.9,55.9 L60.8,55.9 C59.7,57.2 58.6,58.4 57.3,59.5 C63.4,65 71.5,68.4 80.3,68.4 C99.2,68.4 114.600484,53.1 114.600484,34.1 C114.7,15.3 99.3,3.55271368e-15 80.4,3.55271368e-15 Z" fill="#F6AA00"></path>
                </g>
                <g transform="translate(2.200000, 25.500000)">
                    <g transform="translate(0.000000, 0.300000)" fill="#183265">
                        <path d="M24.1,12.2 C23.7,12.2 23.5,12.1 23.3,12.1 C21.2,12.1 20.1,12.8 20.1,14.3 C20.1,15.2 20.6,15.7 21.4,15.7 C23,15.7 24.1,14.3 24.1,12.2 Z M26.8,18.5 C26.3,18.5 23.7,18.5 23.7,18.5 L23.8,17 C22.9,18.2 21.6,18.7 19.9,18.7 C17.9,18.7 16.5,17.1 16.5,14.8 C16.5,11.4 18.9,9.3 23,9.3 C23.4,9.3 24,9.3 24.5,9.4 C24.6,8.9 24.6,8.7 24.6,8.5 C24.6,7.6 23.9,7.2 22.2,7.2 C20.4,7.2 18.9,7.6 18.3,7.8 C18.3,7.6 18.8,4.6 18.8,4.6 C20.7,4.1 21.9,3.9 23.3,3.9 C26.5,3.9 28.2,5.3 28.2,8 C28.2,8.7 28.1,9.6 27.9,10.8 C27.6,13.1 26.9,17.5 26.8,18.5 Z" id="Shape"></path>
                        <polygon id="Path" points="15 18.5 11.2 18.5 13.4 5.1 8.6 18.5 6.1 18.5 5.8 5.2 3.5 18.5 -2.84217094e-14 18.5 2.9 1.1 8.3 1.1 8.6 10.9 11.9 1.1 17.8 1.1"></polygon>
                        <path d="M82.8,12.2 C82.4,12.2 82.2,12.1 82,12.1 C79.9,12.1 78.8,12.8 78.8,14.3 C78.8,15.2 79.3,15.7 80.1,15.7 C81.6,15.7 82.7,14.3 82.8,12.2 Z M85.5,18.5 C85,18.5 82.4,18.5 82.4,18.5 L82.5,17 C81.6,18.2 80.3,18.7 78.6,18.7 C76.6,18.7 75.2,17.1 75.2,14.8 C75.2,11.4 77.6,9.3 81.7,9.3 C82.1,9.3 82.7,9.3 83.2,9.4 C83.3,8.9 83.4,8.7 83.4,8.5 C83.4,7.6 82.7,7.2 81,7.2 C79.2,7.2 77.7,7.6 77.1,7.8 C77.1,7.6 77.6,4.6 77.6,4.6 C79.4,4.1 80.7,3.9 82.1,3.9 C85.3,3.9 87,5.3 87,8 C87,8.7 86.9,9.6 86.7,10.8 C86.3,13.1 85.6,17.5 85.5,18.5 Z" id="Shape"></path>
                        <path d="M43.4,18.3 C42.4,18.6 41.6,18.8 40.7,18.8 C38.8,18.8 37.8,17.7 37.8,15.7 C37.8,15.1 38.1,13.4 38.3,11.9 C38.5,10.6 39.9,2.3 39.9,2.3 L43.6,2.3 L43.2,4.4 L45.4,4.4 L44.9,7.8 L42.6,7.8 C42.2,10.5 41.6,13.8 41.5,14.3 C41.5,15 41.9,15.3 42.8,15.3 C43.2,15.3 43.6,15.3 43.8,15.2 L43.4,18.3 Z" id="Path"></path>
                        <path d="M54.7,18.2 C53.4,18.6 52.2,18.8 50.9,18.8 C46.8,18.8 44.6,16.6 44.6,12.5 C44.6,7.7 47.3,4.1 51.1,4.1 C54.1,4.1 56.1,6.1 56.1,9.2 C56.1,10.2 56,11.3 55.6,12.7 L48.2,12.7 C48,14.7 49.3,15.6 51.4,15.6 C52.7,15.6 53.9,15.3 55.2,14.7 L54.7,18.2 Z M52.6,9.8 C52.6,9.5 53,7.3 50.9,7.3 C49.7,7.3 48.9,8.2 48.5,9.8 L52.6,9.8 Z" id="Shape"></path>
                        <path d="M29.1,8.8 C29.1,10.6 30,11.8 31.9,12.7 C33.4,13.4 33.6,13.6 33.6,14.3 C33.6,15.2 32.9,15.6 31.5,15.6 C30.4,15.6 29.4,15.4 28.2,15 C28.2,15 27.7,18.1 27.7,18.3 C28.5,18.5 29.3,18.7 31.6,18.7 C35.5,18.7 37.3,17.2 37.3,14 C37.3,12.1 36.5,10.9 34.7,10.1 C33.1,9.4 33,9.2 33,8.6 C33,7.8 33.6,7.4 34.8,7.4 C35.5,7.4 36.5,7.5 37.5,7.6 L38,4.3 C37,4.1 35.6,4 34.7,4 C30.5,4.1 29.1,6.2 29.1,8.8 Z" id="Path"></path>
                        <path d="M72.8,4.4 C73.8,4.4 74.8,4.7 76.1,5.3 L76.7,1.5 C76.2,1.3 74.2,0 72.6,0 C70.1,0 68,1.2 66.5,3.3 C64.3,2.6 63.4,4 62.4,5.5 L61.4,5.7 C61.5,5.2 61.5,4.8 61.5,4.3 L58.1,4.3 C57.6,8.7 56.8,13.1 56.2,17.5 L56,18.4 L59.7,18.4 C60.3,14.4 60.7,11.8 60.9,10 L62.3,9.2 C62.5,8.4 63.2,8.2 64.5,8.2 C64.3,9.1 64.2,10.1 64.2,11.1 C64.2,15.7 66.7,18.6 70.7,18.6 C71.7,18.6 72.6,18.5 74,18.1 L74.7,14.1 C73.5,14.7 72.5,15 71.5,15 C69.3,15 68,13.4 68,10.8 C68.1,7.1 70,4.4 72.8,4.4 Z" id="Path"></path>
                        <path d="M104.3,1.1 L103.5,6.1 C102.5,4.8 101.4,3.8 99.9,3.8 C98,3.8 96.3,5.2 95.2,7.3 C93.6,7 92,6.4 92,6.4 L92,6.4 C92.1,5.2 92.2,4.5 92.2,4.3 L88.8,4.3 C88.3,8.7 87.5,13.1 86.9,17.5 L86.7,18.4 L90.4,18.4 C90.9,15.1 91.3,12.4 91.6,10.3 C92.9,9.2 93.5,8.1 94.8,8.2 C94.2,9.6 93.9,11.2 93.9,12.8 C93.9,16.3 95.7,18.7 98.4,18.7 C99.8,18.7 100.8,18.2 101.8,17.1 L101.6,18.4 L105.1,18.4 L107.9,1 L104.3,1 L104.3,1.1 Z M99.7,15.2 C98.4,15.2 97.8,14.3 97.8,12.4 C97.8,9.6 99,7.7 100.7,7.7 C102,7.7 102.7,8.7 102.7,10.5 C102.6,13.3 101.4,15.2 99.7,15.2 Z" id="Shape"></path>
                    </g>
                    <g transform="translate(1.100000, 0.000000)" fill="#FFFFFF">
                        <polygon id="Path" points="14.9 17.8 11.2 17.8 13.3 4.4 8.6 17.8 6 17.8 5.7 4.5 3.5 17.8 0 17.8 2.9 0.4 8.3 0.4 8.4 11.2 12 0.4 17.8 0.4"></polygon>
                        <path d="M24.1,11.5 C23.7,11.5 23.5,11.4 23.3,11.4 C21.2,11.4 20.1,12.1 20.1,13.5 C20.1,14.4 20.6,15 21.4,15 C22.9,15 24,13.6 24.1,11.5 Z M26.8,17.8 C26.3,17.8 23.7,17.8 23.7,17.8 L23.8,16.3 C22.9,17.5 21.6,18 19.9,18 C17.9,18 16.5,16.4 16.5,14.1 C16.5,10.7 18.9,8.7 23,8.7 C23.4,8.7 24,8.7 24.5,8.8 C24.6,8.3 24.6,8.1 24.6,7.9 C24.6,7 23.9,6.6 22.2,6.6 C20.4,6.6 18.9,7 18.3,7.2 C18.3,7 18.8,4 18.8,4 C20.7,3.5 21.9,3.2 23.3,3.2 C26.5,3.2 28.2,4.6 28.2,7.3 C28.2,8 28.1,8.9 27.9,10.1 C27.6,12.3 26.9,16.7 26.8,17.8 Z" id="Shape"></path>
                        <path d="M76.7,0.9 L76.1,4.7 C74.8,4 73.8,3.8 72.8,3.8 C70,3.8 68.1,6.5 68.1,10.3 C68.1,12.9 69.4,14.5 71.6,14.5 C72.5,14.5 73.5,14.2 74.8,13.6 L74.1,17.6 C72.7,18 71.8,18.1 70.8,18.1 C66.8,18.1 64.3,15.2 64.3,10.6 C64.3,4.4 67.7,0 72.7,0 C74.3,0 76.2,0.6 76.7,0.9 Z" id="Path"></path>
                        <path d="M82.7,11.5 C82.3,11.5 82.1,11.4 81.9,11.4 C79.8,11.4 78.7,12.1 78.7,13.5 C78.7,14.4 79.2,15 80,15 C81.6,15 82.7,13.6 82.7,11.5 Z M85.4,17.8 C84.9,17.8 82.3,17.8 82.3,17.8 L82.4,16.3 C81.5,17.5 80.2,18 78.5,18 C76.5,18 75.1,16.4 75.1,14.1 C75.1,10.7 77.5,8.7 81.6,8.7 C82,8.7 82.6,8.7 83.1,8.8 C83.2,8.3 83.2,8.1 83.2,7.9 C83.2,7 82.6,6.6 80.8,6.6 C79,6.6 77.5,7 76.9,7.2 C76.9,7 77.4,4 77.4,4 C79.3,3.5 80.5,3.2 81.8,3.2 C85,3.2 86.7,4.6 86.7,7.3 C86.7,8 86.6,8.9 86.4,10.1 C86.2,12.3 85.5,16.7 85.4,17.8 Z" id="Shape"></path>
                        <path d="M43.3,17.6 C42.3,17.9 41.5,18.1 40.6,18.1 C38.7,18.1 37.7,17 37.7,15 C37.7,14.4 38,12.7 38.2,11.2 C38.4,9.9 39.8,1.6 39.8,1.6 L43.5,1.6 L43.1,3.7 L45,3.7 L44.5,7.1 L42.6,7.1 C42.2,9.8 41.6,13.1 41.6,13.6 C41.6,14.3 42,14.6 42.9,14.6 C43.3,14.6 43.7,14.6 43.9,14.5 L43.3,17.6 Z" id="Path"></path>
                        <path d="M54.7,17.5 C53.4,17.9 52.2,18.1 50.9,18.1 C46.8,18.1 44.6,15.9 44.6,11.8 C44.6,7 47.3,3.4 51.1,3.4 C54.2,3.4 56.1,5.4 56.1,8.5 C56.1,9.5 56,10.6 55.6,12 L48.2,12 C47.9,14 49.3,14.9 51.4,14.9 C52.7,14.9 53.9,14.6 55.3,14 L54.7,17.5 Z M52.6,9.1 C52.6,8.8 53,6.6 50.9,6.6 C49.7,6.6 48.9,7.5 48.5,9.1 L52.6,9.1 Z" id="Shape"></path>
                        <path d="M29,8.1 C29,9.9 29.9,11.1 31.8,12.1 C33.3,12.8 33.5,13 33.5,13.7 C33.5,14.6 32.8,15 31.4,15 C30.3,15 29.3,14.8 28.1,14.4 C28.1,14.4 27.6,17.5 27.6,17.7 C28.4,17.9 29.2,18.1 31.5,18.1 C35.4,18.1 37.2,16.6 37.2,13.4 C37.2,11.5 36.4,10.3 34.6,9.5 C33,8.8 32.9,8.6 32.9,8 C32.9,7.2 33.5,6.8 34.7,6.8 C35.4,6.8 36.4,6.9 37.4,7 L37.9,3.7 C36.9,3.6 35.5,3.4 34.6,3.4 C30.5,3.3 29,5.5 29,8.1 Z" id="Path"></path>
                        <path d="M105.1,17.8 L101.6,17.8 L101.8,16.5 C100.8,17.6 99.7,18.1 98.4,18.1 C95.7,18.1 93.9,15.8 93.9,12.2 C93.9,7.5 96.7,3.5 100,3.5 C101.4,3.5 102.5,4.1 103.6,5.4 L104.4,0.4 L108.1,0.4 L105.1,17.8 Z M99.7,14.5 C101.4,14.5 102.6,12.5 102.6,9.7 C102.6,7.9 101.9,6.9 100.6,6.9 C98.9,6.9 97.7,8.9 97.7,11.7 C97.7,13.6 98.4,14.5 99.7,14.5 Z" id="Shape"></path>
                        <path d="M88.8,3.6 C88.3,8 87.5,12.4 86.9,16.8 L86.7,17.8 L90.4,17.8 C91.7,9.2 92.1,7.5 94.1,7.7 C94.4,5.9 95,4.4 95.5,3.6 C93.9,3.3 93.1,4.2 91.9,5.8 C92,5.1 92.2,4.4 92.1,3.7 L88.8,3.7 L88.8,3.6 Z" id="Path"></path>
                        <path d="M58.2,3.6 C57.7,8 56.9,12.4 56.3,16.8 L56.1,17.8 L59.8,17.8 C61.1,9.2 61.5,7.5 63.5,7.7 C63.8,5.9 64.5,4.4 64.9,3.6 C63.3,3.3 62.5,4.2 61.3,5.8 C61.4,5.1 61.6,4.4 61.5,3.7 L58.2,3.7 L58.2,3.6 Z" id="Path"></path>
                        <path d="M106.8,16.7 C106.8,16.1 107.3,15.6 107.9,15.6 C108.5,15.6 109,16.1 109,16.7 C109,17.3 108.5,17.8 107.9,17.8 C107.3,17.8 106.8,17.3 106.8,16.7 Z M107.9,17.5 C108.4,17.5 108.7,17.1 108.7,16.7 C108.7,16.2 108.3,15.9 107.9,15.9 C107.4,15.9 107.1,16.3 107.1,16.7 C107,17.1 107.4,17.5 107.9,17.5 Z M107.7,17.2 L107.5,17.2 L107.5,16.2 L107.9,16.2 C108,16.2 108.1,16.2 108.1,16.3 C108.2,16.4 108.2,16.5 108.2,16.5 C108.2,16.6 108.1,16.7 108,16.8 L108.2,17.2 L107.9,17.2 L107.8,16.8 L107.6,16.8 L107.6,17.2 L107.7,17.2 Z M107.7,16.6 L107.8,16.6 C107.8,16.6 107.9,16.6 107.9,16.6 C107.9,16.6 108,16.5 108,16.5 C108,16.5 108,16.4 107.9,16.4 C107.9,16.4 107.8,16.4 107.8,16.4 L107.7,16.4 L107.7,16.6 Z" id="Shape"></path>
                    </g>
                </g>
            </g>
            <g id="Group" transform="translate(303.900000, 23.900000)">
                <g id="Clipped" transform="translate(66.900000, 34.600000)">
                    <mask id="mask-2" fill="white">
                        <use xlink:href="#path-1"></use>
                    </mask>
                    <g id="SVGID_1_"></g>
                    <rect id="Rectangle" fill="url(#linearGradient-3)" fill-rule="nonzero" mask="url(#mask-2)" x="0" y="0.1" width="9.5" height="5.9"></rect>
                </g>
                <g id="Clipped" transform="translate(61.400000, 0.000000)">
                    <mask id="mask-5" fill="white">
                        <use xlink:href="#path-4"></use>
                    </mask>
                    <g id="SVGID_4_"></g>
                    <rect id="Rectangle" fill="url(#linearGradient-6)" fill-rule="nonzero" mask="url(#mask-5)" x="0.1" y="0" width="27.4" height="66.7"></rect>
                </g>
                <g id="Clipped" transform="translate(66.900000, 25.900000)">
                    <mask id="mask-8" fill="white">
                        <use xlink:href="#path-7"></use>
                    </mask>
                    <g id="SVGID_7_"></g>
                    <rect id="Rectangle" fill="url(#linearGradient-9)" fill-rule="nonzero" mask="url(#mask-8)" x="0" y="0.1" width="8.7" height="5.4"></rect>
                </g>
                <g id="Clipped">
                    <mask id="mask-11" fill="white">
                        <use xlink:href="#path-10"></use>
                    </mask>
                    <g id="SVGID_10_"></g>
                    <rect id="Rectangle" fill="url(#linearGradient-12)" fill-rule="nonzero" mask="url(#mask-11)" x="-0.1" y="0" width="27.4" height="66.7"></rect>
                </g>
                <g id="Clipped" transform="translate(30.700000, 0.000000)">
                    <mask id="mask-14" fill="white">
                        <use xlink:href="#path-13"></use>
                    </mask>
                    <g id="SVGID_13_"></g>
                    <rect id="Rectangle" fill="url(#linearGradient-15)" fill-rule="nonzero" mask="url(#mask-14)" x="5.68434189e-14" y="0" width="27.4" height="66.7"></rect>
                </g>
            </g>
            <g id="ic_visa_color" transform="translate(31.000000, 35.000000)" fill="#1434CB" fill-rule="nonzero">
                <path d="M51.6021516,0.764585937 L33.2288344,42.5652391 L21.6240406,42.5652391 L13.3376203,9.20533281 C12.8344734,7.15187344 12.3848828,6.39785781 10.7810141,5.53391094 C8.16169063,4.12171719 3.822225,2.79831406 0,1.97664844 L0.275532813,0.764585937 L18.9582078,0.764585937 C21.3379375,0.764585937 23.4583422,2.32405937 23.9607844,5.02583125 L28.2452844,29.2149344 L40.0706453,0.764585937 L51.6021516,0.764585937 Z M96.6803063,28.9168516 C96.8839609,17.8856734 81.3554672,17.2768234 81.5316391,12.3475344 C81.5873094,10.8486641 83.0586969,9.25536563 86.2375422,8.84664688 C87.8111094,8.64510625 92.1512797,8.48796094 97.0347641,10.7161828 L99.0882234,1.85332813 C96.457625,0.908342188 93.0730109,0 88.8420672,0 C77.9912891,0 70.2728469,5.6826 70.0980844,13.8168078 C69.9409391,19.8369531 75.4177703,23.1919703 79.5514672,25.1939875 C83.7979141,27.2425141 85.2143359,28.5560516 85.1727594,30.3882391 C85.1015859,33.1943047 81.7042875,34.4310313 78.5437641,34.4796547 C73.0232422,34.5642172 69.8408734,33.0096766 67.3054078,31.8384859 L65.1892313,40.9987188 C67.7359719,42.1579297 72.4573781,43.1691563 77.3669359,43.2184844 C88.9012609,43.2184844 96.5231609,37.6091719 96.6803063,28.9161469 M125.146158,42.5645344 L135.3,42.5645344 L127.022036,0.764585937 L117.651102,0.764585937 C115.543381,0.764585937 113.749247,1.97101094 112.934628,3.82997656 L95.9185391,42.5645344 L107.444408,42.5645344 L109.822728,36.3195938 L123.906613,36.3195938 L125.146158,42.5645344 L125.146158,42.5645344 Z M113.102344,27.7534125 L119.102053,12.0586125 L122.20902,27.7534125 L113.102344,27.7534125 Z M67.2899047,0.764585937 L57.6258203,42.5652391 L46.6453797,42.5652391 L56.3136922,0.764585937 L67.2899047,0.764585937 Z" id="Shape"></path>
            </g>
        </g>
    </g>
</svg>