<svg xmlns="http://www.w3.org/2000/svg" viewBox="0 0 180 180"><defs><style>.cls-1{fill:#e4e4ea;}.cls-2{fill:#fff;}.cls-3{fill:none;}.cls-4{fill:#f3d54d;}.cls-5{fill:#343262;}</style></defs><title>img-flow-3</title><g id="圖層_2" data-name="圖層 2"><g id="圖層_1-2" data-name="圖層 1"><circle class="cls-1" cx="90" cy="90" r="90"/><path class="cls-2" d="M145.87,68.47l-8.6,43.36a3.13,3.13,0,0,1-3.06,2.51H63.3l1,5.44h67.42a3.12,3.12,0,1,1,0,6.23h-9.48a12.68,12.68,0,1,1-4.54,0H77.18a12.68,12.68,0,1,1-4.54,0h-11a3.1,3.1,0,0,1-3.06-2.57L45.15,53.2H37.2a3.12,3.12,0,1,1,0-6.24H47.72a3.11,3.11,0,0,1,3.06,2.53l2.95,15.25h89.08a3.11,3.11,0,0,1,2.41,1.14A3.07,3.07,0,0,1,145.87,68.47Z"/><polygon class="cls-3" points="57.91 86.3 62.14 108.11 73.26 108.11 69.67 86.3 57.91 86.3"/><path class="cls-3" d="M68.47,138.48A6.44,6.44,0,1,0,74.91,132,6.45,6.45,0,0,0,68.47,138.48Z"/><path class="cls-3" d="M113.48,138.48a6.44,6.44,0,1,0,6.44-6.44A6.45,6.45,0,0,0,113.48,138.48Z"/><polygon class="cls-3" points="79.57 108.11 93.86 108.11 93.86 86.3 75.99 86.3 79.57 108.11"/><polygon class="cls-3" points="120.9 108.11 131.65 108.11 135.98 86.3 124.03 86.3 120.9 108.11"/><polygon class="cls-3" points="100.09 108.11 114.6 108.11 117.73 86.3 100.09 86.3 100.09 108.11"/><polygon class="cls-4" points="56.7 80.07 137.21 80.07 139.02 70.97 54.94 70.97 56.7 80.07"/><path class="cls-5" d="M145.22,65.88a3.11,3.11,0,0,0-2.41-1.14H53.73L50.78,49.49A3.11,3.11,0,0,0,47.72,47H37.2a3.12,3.12,0,1,0,0,6.24h7.95l13.42,70.24A3.1,3.1,0,0,0,61.63,126h11a12.67,12.67,0,1,0,4.54,0h40.47a12.67,12.67,0,1,0,4.54,0h9.48a3.12,3.12,0,1,0,0-6.23H64.25l-1-5.44h70.91a3.13,3.13,0,0,0,3.06-2.51l8.6-43.36A3.07,3.07,0,0,0,145.22,65.88Zm-18.86,72.6a6.44,6.44,0,1,1-6.44-6.44A6.44,6.44,0,0,1,126.36,138.48Zm-45,0A6.44,6.44,0,1,1,74.91,132,6.45,6.45,0,0,1,81.35,138.48ZM62.14,108.12,57.9,86.31H69.67l3.59,21.81Zm31.72,0H79.57L76,86.31H93.86Zm20.75,0H100.1V86.31h17.64Zm17,0H120.91L124,86.31H136Zm5.55-28.06H56.71L55,71H139Z"/></g></g></svg>